<mxfile host="app.diagrams.net" modified="2024-03-25T13:36:00.350Z" agent="Mozilla/5.0 (Windows NT 10.0; Win64; x64) AppleWebKit/537.36 (KHTML, like Gecko) Chrome/123.0.0.0 Safari/537.36" version="24.1.0" etag="Bu56MkU9GLDX_mIZNhyr" type="github">
  <diagram name="StrÃ¡nka-1" id="7OuR9GHxpXgs6eLxH3t9">
    <mxGraphModel>
      <root>
        <mxCell id="0" />
        <mxCell id="1" parent="0" />
      </root>
    </mxGraphModel>
  </diagram>
</mxfile>
